<svg width="20" height="20" viewBox="0 0 20 20" fill="none" xmlns="http://www.w3.org/2000/svg">
<path d="M5.58398 7.7168L10.0006 10.2751L14.384 7.73346" stroke="#44BD32" stroke-width="1.5" stroke-linecap="round" stroke-linejoin="round"/>
<path d="M10 14.808V10.2664" stroke="#44BD32" stroke-width="1.5" stroke-linecap="round" stroke-linejoin="round"/>
<path d="M8.96688 5.24138L6.3002 6.72472C5.7002 7.05805 5.2002 7.89972 5.2002 8.59138V11.4164C5.2002 12.108 5.69187 12.9497 6.3002 13.2831L8.96688 14.7664C9.53355 15.0831 10.4669 15.0831 11.0419 14.7664L13.7085 13.2831C14.3085 12.9497 14.8085 12.108 14.8085 11.4164V8.58305C14.8085 7.89139 14.3169 7.04972 13.7085 6.71638L11.0419 5.23305C10.4669 4.91638 9.53355 4.91638 8.96688 5.24138Z" stroke="#44BD32" stroke-width="1.5" stroke-linecap="round" stroke-linejoin="round"/>
<path d="M18.3333 12.5C18.3333 15.725 15.725 18.3333 12.5 18.3333L13.375 16.875" stroke="#44BD32" stroke-width="1.5" stroke-linecap="round" stroke-linejoin="round"/>
<path d="M1.66602 7.49984C1.66602 4.27484 4.27435 1.6665 7.49935 1.6665L6.62436 3.12484" stroke="#44BD32" stroke-width="1.5" stroke-linecap="round" stroke-linejoin="round"/>
</svg>
